<svg xmlns="http://www.w3.org/2000/svg" xmlns:xlink="http://www.w3.org/1999/xlink" width="500" zoomAndPan="magnify" viewBox="0 0 375 374.999991" height="500" preserveAspectRatio="xMidYMid meet" version="1.0"><defs><g/><clipPath id="id1"><path d="M 57.617188 221 L 113 221 L 113 259.683594 L 57.617188 259.683594 Z M 57.617188 221 " clip-rule="nonzero"/></clipPath><clipPath id="id2"><path d="M 262 221 L 317.117188 221 L 317.117188 259.683594 L 262 259.683594 Z M 262 221 " clip-rule="nonzero"/></clipPath><clipPath id="id3"><path d="M 176 96.933594 L 197 96.933594 L 197 180 L 176 180 Z M 176 96.933594 " clip-rule="nonzero"/></clipPath></defs><g clip-path="url(#id1)"><path fill="#8da68b" d="M 112.335938 227.84375 C 110.746094 227.941406 109.183594 228.003906 107.648438 228.039062 C 104.507812 228.109375 101.492188 228.054688 98.613281 227.90625 C 78.761719 226.890625 65.550781 221.417969 65.550781 221.417969 L 65.734375 221.820312 L 67.671875 226.058594 L 69.296875 229.609375 L 72.964844 237.636719 L 74.871094 241.808594 L 57.617188 254.71875 C 66.476562 257.355469 75.199219 258.675781 82.992188 259.246094 C 87.972656 259.609375 92.5625 259.667969 96.578125 259.566406 C 99.230469 259.5 101.632812 259.367188 103.71875 259.207031 C 109.238281 258.78125 112.5625 258.171875 112.5625 258.171875 L 112.5625 227.832031 C 112.484375 227.835938 112.410156 227.839844 112.335938 227.84375 Z M 112.335938 227.84375 " fill-opacity="1" fill-rule="nonzero"/></g><path fill="#364e35" d="M 99.726562 248.957031 L 112.5625 258.160156 L 112.5625 241.878906 Z M 99.726562 248.957031 " fill-opacity="1" fill-rule="nonzero"/><g clip-path="url(#id2)"><path fill="#8da68b" d="M 299.859375 241.847656 L 301.765625 237.675781 L 305.4375 229.644531 L 307.0625 226.09375 L 309 221.855469 L 309.183594 221.453125 C 309.183594 221.453125 295.96875 226.925781 276.121094 227.941406 C 273.242188 228.089844 270.226562 228.144531 267.085938 228.074219 C 265.550781 228.042969 263.988281 227.976562 262.398438 227.878906 C 262.320312 227.875 262.246094 227.871094 262.171875 227.867188 L 262.171875 258.207031 C 262.171875 258.207031 265.496094 258.816406 271.015625 259.242188 C 273.101562 259.40625 275.5 259.535156 278.15625 259.601562 C 282.171875 259.703125 286.761719 259.644531 291.738281 259.28125 C 299.535156 258.710938 308.257812 257.390625 317.117188 254.753906 L 299.859375 241.84375 Z M 299.859375 241.847656 " fill-opacity="1" fill-rule="nonzero"/></g><path fill="#364e35" d="M 275.007812 248.992188 L 262.171875 258.195312 L 262.171875 241.914062 Z M 275.007812 248.992188 " fill-opacity="1" fill-rule="nonzero"/><path fill="#4e6d4b" d="M 275.410156 217.433594 C 271.554688 216.355469 266.027344 214.867188 259.351562 213.246094 C 256.570312 212.570312 253.582031 211.875 250.453125 211.175781 C 247.890625 210.605469 245.234375 210.03125 242.492188 209.472656 C 241.203125 209.210938 239.902344 208.949219 238.582031 208.691406 C 228.683594 206.761719 217.929688 205.035156 207.316406 204.011719 C 201.554688 203.453125 195.839844 203.109375 190.320312 203.042969 C 189.320312 203.03125 188.316406 203.019531 187.328125 203.027344 C 184.820312 203.011719 182.265625 203.054688 179.675781 203.15625 C 178.859375 203.1875 178.039062 203.234375 177.21875 203.277344 C 176.601562 203.308594 175.984375 203.335938 175.363281 203.371094 C 173.546875 203.484375 171.714844 203.625 169.878906 203.785156 C 156.097656 204.972656 141.953125 207.40625 129.621094 210.003906 C 125.261719 210.921875 121.136719 211.855469 117.328125 212.761719 C 116.339844 213 115.367188 213.230469 114.421875 213.464844 C 114.402344 213.46875 114.382812 213.472656 114.359375 213.480469 C 112.960938 213.820312 111.617188 214.15625 110.328125 214.484375 C 106.242188 215.519531 102.738281 216.464844 99.992188 217.226562 C 97.761719 217.847656 96.039062 218.347656 94.90625 218.679688 C 94.429688 218.820312 94.070312 218.929688 93.808594 219.007812 C 93.523438 219.09375 93.34375 219.148438 93.34375 219.148438 L 94.878906 226.375 L 99.683594 249 C 99.683594 249 101.421875 248.464844 104.5 247.59375 C 105.136719 247.410156 105.847656 247.214844 106.597656 247.003906 C 107.464844 246.761719 108.402344 246.507812 109.414062 246.234375 C 110.378906 245.972656 111.402344 245.699219 112.488281 245.414062 C 113.195312 245.226562 113.917969 245.039062 114.671875 244.84375 C 115.453125 244.640625 116.253906 244.4375 117.085938 244.226562 C 120.636719 243.328125 124.617188 242.367188 128.90625 241.394531 C 130.136719 241.117188 131.394531 240.835938 132.667969 240.558594 C 137.8125 239.4375 143.328125 238.324219 149.042969 237.308594 C 149.804688 237.175781 150.574219 237.042969 151.34375 236.910156 C 152.117188 236.777344 152.890625 236.644531 153.671875 236.515625 C 164.738281 234.695312 176.359375 233.304688 187.328125 232.957031 C 190.324219 233.050781 193.367188 233.234375 196.433594 233.46875 C 197.152344 233.527344 197.875 233.578125 198.597656 233.640625 C 200.070312 233.769531 201.546875 233.914062 203.023438 234.066406 C 204.640625 234.238281 206.257812 234.425781 207.871094 234.625 C 214.472656 235.4375 221.035156 236.472656 227.339844 237.621094 C 230.902344 238.269531 234.375 238.953125 237.722656 239.648438 C 238.71875 239.855469 239.707031 240.066406 240.679688 240.273438 C 242.679688 240.703125 244.628906 241.136719 246.511719 241.566406 C 250.476562 242.46875 254.164062 243.367188 257.480469 244.203125 C 257.972656 244.328125 258.441406 244.445312 258.914062 244.566406 C 260.695312 245.023438 262.359375 245.457031 263.886719 245.867188 C 264.371094 245.996094 264.847656 246.125 265.304688 246.25 C 266.769531 246.644531 268.082031 247.007812 269.242188 247.332031 C 270.605469 247.714844 271.757812 248.046875 272.65625 248.308594 C 274.152344 248.746094 274.976562 249 274.976562 249 L 275.417969 246.910156 L 276.328125 242.632812 L 277.328125 237.90625 L 278.492188 232.441406 L 280.695312 222.050781 L 281.3125 219.148438 C 281.3125 219.148438 279.148438 218.484375 275.410156 217.433594 Z M 275.410156 217.433594 " fill-opacity="1" fill-rule="nonzero"/><path fill="#4d704a" d="M 185.449219 211.664062 C 185.296875 210.621094 185.121094 209.578125 185.078125 208.53125 C 184.949219 205.136719 184.875 201.742188 184.777344 198.347656 C 184.765625 197.972656 184.710938 197.597656 184.710938 197.222656 C 184.703125 194.394531 184.707031 191.5625 184.707031 188.730469 C 184.734375 188.761719 184.761719 188.796875 184.789062 188.828125 L 183.964844 185.566406 C 183.964844 185.566406 183.519531 184.15625 183.519531 183.714844 C 183.519531 183.414062 183.300781 182.699219 183.164062 182.289062 C 183.074219 182.300781 182.984375 182.308594 182.902344 182.308594 L 181.5625 182.152344 C 181.671875 183.152344 181.902344 185.234375 181.902344 185.574219 C 181.902344 185.753906 181.824219 186.015625 181.734375 186.269531 C 181.742188 186.261719 181.75 186.253906 181.757812 186.246094 C 181.839844 186.792969 181.847656 187.320312 181.839844 187.847656 C 181.792969 190.777344 181.730469 193.703125 181.703125 196.632812 C 181.652344 201.542969 182.292969 206.457031 181.601562 211.371094 C 181.433594 212.566406 181.820312 212.90625 183.011719 213.085938 C 183.402344 213.144531 183.804688 213.136719 184.199219 213.140625 C 185.296875 213.144531 185.609375 212.746094 185.449219 211.664062 Z M 183.210938 184.183594 C 183.222656 184.242188 183.230469 184.300781 183.238281 184.363281 C 183.222656 184.304688 183.210938 184.246094 183.210938 184.183594 Z M 183.210938 184.183594 " fill-opacity="1" fill-rule="nonzero"/><path fill="#4e6d4b" d="M 227.105469 117.324219 C 227.457031 116.78125 227.125 116.460938 226.863281 116.203125 C 226.585938 115.929688 226.417969 116.375 226.226562 116.539062 C 226.085938 116.660156 225.964844 116.808594 225.824219 116.929688 C 223.695312 118.808594 221.75 120.867188 219.792969 122.917969 C 219.636719 123.085938 219.53125 123.472656 219.246094 122.953125 C 219.0625 122.621094 218.195312 122.761719 217.886719 123.140625 C 217.320312 123.828125 216.792969 124.542969 216.230469 125.230469 C 215.96875 125.554688 215.921875 126.226562 215.214844 125.933594 C 215.164062 125.914062 215.042969 126.074219 214.949219 126.140625 C 214.585938 126.40625 214.484375 126.832031 214.304688 127.207031 C 213.929688 128 213.546875 128.785156 213.003906 129.535156 C 212.445312 128.429688 212.28125 128.417969 211.59375 129.367188 C 211.316406 129.746094 211.054688 130.132812 210.796875 130.519531 C 210.121094 131.542969 209.449219 132.570312 208.761719 133.621094 C 208.058594 132.457031 207.824219 132.464844 207.195312 133.589844 C 207.113281 133.730469 207.042969 133.878906 206.960938 134.019531 C 206.203125 135.359375 205.515625 136.734375 204.835938 138.171875 C 204.699219 138.011719 204.601562 137.910156 204.523438 137.800781 C 204.007812 137.078125 203.785156 137.089844 203.367188 137.890625 C 202.761719 139.050781 202.167969 140.214844 201.710938 141.445312 C 201.53125 141.933594 201.328125 142.414062 201.121094 142.9375 C 200.507812 142.175781 200.210938 142.207031 199.871094 143.042969 C 199.480469 144.015625 199.125 145.003906 198.753906 145.984375 C 198.644531 146.273438 198.644531 146.65625 198.136719 146.328125 C 197.867188 146.15625 197.648438 146.367188 197.539062 146.707031 C 197.191406 147.820312 196.8125 148.921875 196.417969 150.019531 C 196.261719 150.445312 196.234375 151.015625 195.53125 150.980469 C 195.355469 150.972656 195.253906 151.214844 195.183594 151.390625 C 195.03125 151.777344 194.871094 152.167969 194.746094 152.566406 C 194.359375 153.839844 194.023438 155.125 193.511719 156.355469 C 193.429688 156.554688 193.441406 156.878906 193.117188 156.84375 C 192.625 156.792969 192.480469 157.136719 192.3125 157.472656 C 192.042969 158.019531 191.796875 158.578125 191.496094 159.105469 C 191.429688 159.226562 191.484375 159.585938 191.179688 159.488281 C 190.847656 161.738281 188.304688 165.574219 188.304688 165.574219 L 189.234375 165.332031 C 189.234375 165.332031 189.351562 165.050781 189.394531 165.71875 C 189.4375 166.386719 187.152344 169.800781 187.152344 169.800781 L 188.007812 169.667969 C 188.105469 169.96875 184.34375 178.0625 183.515625 179.839844 C 183.527344 179.96875 183.523438 180.121094 183.472656 180.277344 C 183.359375 180.648438 183.015625 181.058594 182.117188 181.292969 C 182.117188 181.292969 181.824219 181.570312 181.53125 181.855469 C 181.539062 181.9375 181.550781 182.035156 181.5625 182.152344 L 182.902344 182.304688 C 182.984375 182.304688 183.074219 182.296875 183.164062 182.285156 C 183.105469 182.097656 183.058594 181.972656 183.058594 181.972656 L 183.503906 182.21875 C 184.652344 181.933594 186.078125 181.019531 186.078125 181.019531 C 186.335938 180.953125 186.582031 180.847656 186.808594 180.714844 C 188.171875 179.921875 188.976562 178.179688 188.976562 178.179688 L 188.605469 177.988281 C 189.738281 177.988281 191.507812 176.109375 191.507812 176.109375 L 191.21875 175.953125 C 192.675781 175.5625 195.0625 173.183594 195.0625 173.183594 L 194.75 172.492188 C 195.582031 172.492188 198.242188 170.441406 198.242188 170.441406 L 200.273438 168.441406 C 200.109375 168.539062 199.929688 168.613281 199.757812 168.339844 C 200.257812 167.929688 200.753906 167.507812 201.261719 167.101562 C 202.101562 166.429688 202.957031 165.777344 203.789062 165.097656 C 204.074219 164.859375 204.433594 164.515625 203.941406 164.195312 C 203.34375 163.804688 203.734375 163.667969 204.042969 163.445312 C 204.980469 162.777344 205.863281 162.046875 206.613281 161.167969 C 207.140625 160.546875 207.105469 160.351562 206.46875 159.917969 C 206.523438 159.726562 206.683594 159.625 206.828125 159.511719 C 207.804688 158.742188 208.710938 157.902344 209.511719 156.941406 C 210.175781 156.144531 210.128906 155.910156 209.117188 155.617188 C 210.070312 154.644531 210.839844 153.558594 211.660156 152.511719 C 211.839844 152.28125 212.15625 152.019531 212.003906 151.71875 C 211.789062 151.285156 212.074219 151.128906 212.300781 150.910156 C 213.097656 150.148438 213.910156 149.402344 214.480469 148.445312 C 214.703125 148.066406 214.988281 147.699219 214.691406 147.222656 C 214.527344 146.957031 214.761719 146.796875 214.898438 146.617188 C 215.507812 145.816406 216.113281 145.015625 216.71875 144.210938 C 216.910156 143.960938 217.097656 143.632812 216.871094 143.382812 C 216.5625 143.042969 216.820312 142.886719 216.984375 142.691406 C 217.652344 141.878906 218.320312 141.066406 218.828125 140.136719 C 218.972656 139.875 219.214844 139.519531 218.992188 139.296875 C 218.597656 138.894531 218.90625 138.6875 219.101562 138.417969 C 219.324219 138.117188 219.554688 137.820312 219.753906 137.503906 C 219.941406 137.203125 220.296875 136.910156 220.027344 136.507812 C 219.757812 136.101562 219.390625 136.4375 219.066406 136.4375 C 219.03125 136.4375 219 136.394531 218.941406 136.34375 C 219.0625 136.175781 219.179688 136.003906 219.300781 135.839844 C 220.117188 134.726562 220.964844 133.636719 221.574219 132.386719 C 221.742188 132.03125 221.859375 131.644531 221.617188 131.324219 C 221.351562 130.972656 221.027344 131.3125 220.726562 131.367188 C 220.695312 131.375 220.65625 131.324219 220.582031 131.273438 C 221.214844 130.191406 221.808594 129.082031 222.320312 127.929688 C 222.429688 127.691406 222.6875 127.445312 222.449219 127.164062 C 222.226562 126.898438 221.933594 127.058594 221.664062 127.101562 C 221.613281 127.109375 221.550781 127.070312 221.480469 127.046875 C 221.515625 126.957031 221.535156 126.894531 221.570312 126.835938 C 223.371094 123.640625 225.109375 120.40625 227.105469 117.324219 Z M 227.105469 117.324219 " fill-opacity="1" fill-rule="nonzero"/><path fill="#364e35" d="M 181.5625 182.152344 C 181.550781 182.039062 181.539062 181.9375 181.527344 181.855469 C 181.433594 181.945312 181.34375 182.035156 181.257812 182.117188 C 181.15625 182.214844 181.066406 182.304688 181.003906 182.367188 C 181.464844 182.367188 175.292969 187.480469 172.511719 187.824219 C 172.511719 187.824219 172.25 187.738281 172.441406 186.902344 C 172.441406 186.902344 170.964844 187.589844 169.8125 188.074219 C 169.453125 188.53125 168.808594 188.816406 169.382812 189.496094 C 169.503906 189.640625 169.253906 189.765625 169.160156 189.886719 C 168.714844 190.484375 168.21875 191.050781 167.851562 191.707031 C 167.730469 191.914062 167.59375 192.140625 167.851562 192.328125 C 168.1875 192.570312 167.945312 192.734375 167.824219 192.957031 C 166.75 194.863281 165.460938 196.664062 164.871094 198.816406 C 164.765625 199.191406 164.34375 199.648438 164.832031 199.945312 C 165.25 200.207031 165.53125 199.699219 165.785156 199.441406 C 167.453125 197.757812 169.34375 196.320312 170.972656 194.601562 C 171.078125 194.492188 171.195312 194.238281 171.410156 194.496094 C 171.765625 194.933594 172.015625 194.632812 172.257812 194.367188 C 172.890625 193.679688 173.515625 192.980469 174.152344 192.292969 C 174.253906 192.183594 174.332031 191.929688 174.507812 192.027344 C 175.203125 192.414062 175.46875 191.847656 175.804688 191.464844 C 176.378906 190.8125 176.921875 190.140625 177.484375 189.480469 C 177.578125 189.375 177.691406 189.125 177.851562 189.347656 C 178.3125 189.984375 178.570312 189.488281 178.800781 189.171875 C 179.609375 188.058594 180.714844 187.242188 181.734375 186.269531 C 181.824219 186.015625 181.902344 185.753906 181.902344 185.574219 C 181.902344 185.238281 181.671875 183.152344 181.5625 182.152344 Z M 181.5625 182.152344 " fill-opacity="1" fill-rule="nonzero"/><g clip-path="url(#id3)"><path fill="#364e35" d="M 195.878906 132.617188 C 196.164062 131.296875 196.042969 131.1875 194.796875 131.515625 C 194.765625 131.519531 194.722656 131.472656 194.664062 131.441406 C 194.984375 129.875 195.390625 128.316406 195.355469 126.6875 C 195.328125 125.5625 195.339844 125.53125 194.230469 125.652344 C 193.832031 125.695312 193.785156 125.566406 193.839844 125.238281 C 193.953125 124.546875 194.101562 123.859375 194.140625 123.160156 C 194.203125 122.066406 194.375 120.972656 194.214844 119.867188 C 194.164062 119.492188 194.023438 119.136719 193.617188 119.347656 C 192.933594 119.703125 192.941406 119.339844 192.945312 118.847656 C 192.945312 117.347656 192.976562 115.839844 192.621094 114.375 C 192.382812 113.382812 192.128906 112.960938 191.257812 113.902344 C 191.238281 113.921875 191.175781 113.90625 191.105469 113.910156 C 191.105469 112.996094 191.09375 112.082031 191.109375 111.167969 C 191.121094 110.367188 191.078125 109.574219 190.832031 108.8125 C 190.644531 108.222656 190.386719 108.183594 189.953125 108.625 C 189.882812 108.699219 189.847656 108.84375 189.65625 108.757812 C 189.636719 108.640625 189.597656 108.507812 189.589844 108.371094 C 189.40625 105.457031 189.242188 102.539062 188.722656 99.660156 C 188.605469 99.015625 188.554688 98.363281 188.449219 97.714844 C 188.394531 97.390625 188.214844 96.988281 187.933594 96.96875 C 187.589844 96.949219 187.371094 97.308594 187.304688 97.6875 C 187.273438 97.894531 187.207031 98.09375 187.167969 98.300781 C 186.925781 99.515625 186.8125 100.746094 186.707031 101.980469 C 186.492188 104.539062 186.042969 107.078125 186.007812 109.65625 C 186.003906 109.851562 186.089844 110.082031 185.882812 110.238281 C 184.667969 109.445312 184.679688 109.449219 184.488281 110.878906 C 184.316406 112.160156 184.265625 113.445312 184.222656 114.730469 C 184.21875 114.867188 184.347656 115.183594 184.027344 115.113281 C 183.199219 114.933594 183.277344 115.539062 183.25 116 C 183.171875 117.402344 183.308594 118.796875 183.445312 120.261719 C 182.804688 120.070312 182.238281 119.894531 181.714844 119.589844 C 181 119.167969 180.839844 119.25 180.835938 120.109375 C 180.828125 121.394531 180.855469 122.683594 180.847656 123.972656 C 180.847656 124.164062 180.996094 124.476562 180.585938 124.488281 C 179.917969 124.503906 179.886719 124.953125 179.902344 125.46875 C 179.949219 126.828125 179.980469 128.183594 180.003906 129.542969 C 180.007812 129.695312 180.097656 130.015625 179.871094 129.988281 C 178.839844 129.84375 179.074219 130.628906 179.042969 131.132812 C 178.972656 132.320312 179.175781 133.496094 179.371094 134.6875 C 178.582031 134.371094 178.472656 134.441406 178.453125 135.21875 C 178.445312 135.476562 178.449219 135.734375 178.445312 135.992188 C 178.441406 137.566406 178.703125 139.113281 178.816406 140.675781 C 178.828125 140.832031 178.949219 141.054688 178.703125 141.066406 C 178.023438 141.09375 178.152344 141.589844 178.148438 141.980469 C 178.136719 143.714844 178.144531 145.445312 178.144531 147.191406 C 177.710938 147.152344 177.21875 146.9375 177.273438 147.726562 C 177.382812 149.292969 177.621094 150.835938 177.839844 152.382812 C 177.890625 152.722656 177.96875 152.964844 177.457031 152.921875 C 177.132812 152.894531 177.15625 153.234375 177.160156 153.453125 C 177.175781 154.363281 177.128906 155.277344 177.304688 156.183594 C 177.484375 157.109375 177.605469 158.046875 177.761719 159.039062 C 177.382812 158.914062 177.179688 158.398438 176.785156 158.730469 C 176.429688 159.035156 176.722656 159.410156 176.808594 159.710938 C 177.273438 161.367188 177.785156 163.007812 178.304688 164.71875 C 178.296875 164.714844 178.292969 164.710938 178.289062 164.707031 L 178.554688 165.25 L 178.390625 165.921875 C 178.390625 165.921875 179.0625 168.25 179.328125 169.023438 C 179.589844 169.800781 180.324219 171.476562 180.324219 173.515625 L 180.324219 174.167969 C 180.324219 174.410156 180.769531 173.273438 181.203125 173.023438 C 181.203125 173.023438 182.34375 175.335938 182.34375 176.914062 C 182.34375 176.914062 182.628906 178.996094 183.425781 179.476562 C 183.425781 179.476562 183.496094 179.625 183.515625 179.839844 C 184.34375 178.0625 188.105469 169.972656 188.007812 169.667969 L 187.152344 169.800781 C 187.152344 169.800781 189.4375 166.390625 189.394531 165.722656 C 189.351562 165.054688 189.234375 165.332031 189.234375 165.332031 L 188.304688 165.574219 C 188.304688 165.574219 190.847656 161.738281 191.183594 159.492188 C 191.152344 159.480469 191.121094 159.46875 191.082031 159.449219 C 190.730469 159.273438 190.875 159.046875 190.980469 158.8125 C 191.46875 157.726562 191.980469 156.652344 192.371094 155.527344 C 192.480469 155.214844 192.601562 154.894531 192.480469 154.574219 C 192.351562 154.230469 191.953125 154.40625 191.675781 154.269531 C 192.4375 152.949219 193.175781 151.675781 193.550781 150.238281 C 193.636719 149.910156 193.820312 149.484375 193.433594 149.296875 C 193.039062 149.109375 193.195312 148.960938 193.308594 148.726562 C 194.007812 147.265625 194.457031 145.71875 194.863281 144.164062 C 195.003906 143.632812 195.058594 143.097656 194.171875 143.179688 C 194.4375 142.496094 194.679688 141.867188 194.929688 141.246094 C 195.1875 140.617188 195.386719 139.972656 195.53125 139.308594 C 195.789062 138.113281 195.507812 137.820312 194.355469 138.132812 C 194.320312 138.140625 194.273438 138.101562 194.234375 138.085938 C 194.152344 137.90625 194.28125 137.773438 194.335938 137.628906 C 194.964844 135.992188 195.515625 134.332031 195.882812 132.617188 Z M 187.214844 103.960938 L 187.214844 102.773438 C 187.316406 103.167969 187.3125 103.5625 187.214844 103.960938 L 187.214844 104.011719 L 187.210938 104.019531 L 187.210938 104 L 187.207031 103.996094 C 187.210938 103.984375 187.214844 103.972656 187.214844 103.960938 Z M 187.214844 103.960938 " fill-opacity="1" fill-rule="nonzero"/></g><path fill="#4e6d4b" d="M 222.375 188.5625 C 221.773438 188.375 221.308594 187.929688 220.695312 187.742188 C 219.738281 187.449219 218.816406 187.042969 217.878906 186.691406 C 217.648438 186.601562 217.425781 186.546875 217.644531 186.214844 C 217.980469 185.703125 217.582031 185.546875 217.207031 185.445312 C 216.582031 185.273438 215.941406 185.148438 215.3125 184.984375 C 215.160156 184.945312 214.867188 184.941406 214.925781 184.710938 C 215.078125 184.136719 214.671875 184.105469 214.320312 183.988281 C 213.5 183.707031 212.652344 183.554688 211.792969 183.460938 C 211.429688 183.421875 211.078125 183.46875 211.195312 182.90625 C 211.242188 182.671875 211.023438 182.621094 210.816406 182.601562 C 209.863281 182.515625 208.914062 182.421875 207.964844 182.324219 C 207.824219 182.308594 207.554688 182.378906 207.621094 182.117188 C 207.808594 181.390625 207.316406 181.457031 206.894531 181.472656 C 205.625 181.527344 204.378906 181.316406 203.125 181.199219 C 202.996094 181.1875 202.769531 181.289062 202.824219 180.976562 C 202.878906 180.683594 202.769531 180.546875 202.601562 180.46875 C 201.054688 180.585938 195.167969 181.019531 194.507812 181.019531 C 193.742188 181.019531 192.65625 180.773438 192.65625 180.773438 L 192.882812 181.019531 L 188.179688 181.019531 L 186.808594 180.714844 C 186.582031 180.847656 186.339844 180.953125 186.078125 181.019531 C 186.078125 181.019531 184.65625 181.933594 183.503906 182.222656 L 184.789062 182.9375 L 186.546875 183.804688 L 188.605469 185.296875 L 190.464844 186.273438 L 192.226562 187.710938 C 192.394531 187.761719 192.546875 187.835938 192.695312 187.90625 C 194.351562 188.710938 196.007812 189.511719 197.667969 190.3125 C 198.167969 190.550781 198.628906 190.644531 198.769531 189.90625 C 198.835938 189.546875 199.03125 189.578125 199.316406 189.652344 C 200.53125 189.976562 201.75 190.273438 202.96875 190.582031 C 203.332031 190.671875 203.707031 190.683594 203.925781 190.351562 C 204.125 190.046875 204.320312 190.0625 204.625 190.132812 C 205.621094 190.363281 206.625 190.5625 207.628906 190.757812 C 208 190.832031 208.5 190.898438 208.617188 190.480469 C 208.78125 189.902344 209.125 190.085938 209.464844 190.109375 C 210.351562 190.167969 211.261719 190.496094 212.078125 189.828125 C 212.171875 189.75 212.394531 189.804688 212.554688 189.828125 C 213.945312 190.046875 215.34375 190.089844 216.746094 190.0625 C 216.933594 190.0625 217.207031 190.078125 217.195312 189.847656 C 217.164062 189.261719 217.554688 189.398438 217.871094 189.386719 C 219.296875 189.332031 220.722656 189.277344 222.144531 189.222656 C 222.363281 189.214844 222.589844 189.207031 222.636719 188.9375 C 222.667969 188.753906 222.535156 188.613281 222.375 188.566406 Z M 222.375 188.5625 " fill-opacity="1" fill-rule="nonzero"/><path fill="#4e6d4b" d="M 183.515625 179.839844 C 183.496094 179.625 183.425781 179.476562 183.425781 179.476562 C 182.628906 178.992188 182.339844 176.914062 182.339844 176.914062 C 182.339844 175.332031 181.203125 173.023438 181.203125 173.023438 C 180.765625 173.273438 180.320312 174.410156 180.320312 174.167969 L 180.320312 173.515625 C 180.320312 171.476562 179.589844 169.800781 179.324219 169.023438 C 179.0625 168.25 178.386719 165.917969 178.386719 165.917969 L 178.550781 165.25 L 178.285156 164.707031 C 177.785156 164.378906 177.769531 163.476562 176.9375 163.726562 C 176.929688 163.730469 176.796875 163.503906 176.824219 163.417969 C 176.941406 163.0625 176.667969 162.839844 176.574219 162.5625 C 176.363281 161.917969 176.140625 161.28125 175.929688 160.640625 C 175.859375 160.425781 175.742188 160.210938 175.503906 160.257812 C 175.082031 160.339844 175.109375 160.074219 175.089844 159.816406 C 175.023438 158.929688 174.902344 158.050781 174.703125 157.1875 C 174.625 156.835938 174.582031 156.464844 174.066406 156.554688 C 173.800781 156.601562 173.828125 156.386719 173.832031 156.234375 C 173.867188 154.921875 173.316406 153.726562 173.097656 152.464844 C 173.042969 152.152344 172.851562 151.875 172.464844 151.960938 C 172.203125 152.019531 172.148438 151.941406 172.136719 151.695312 C 172.101562 150.949219 172.039062 150.199219 172 149.453125 C 171.957031 148.613281 171.875 147.773438 171.695312 146.949219 C 171.605469 146.519531 171.34375 146.164062 170.863281 146.335938 C 170.273438 146.542969 170.296875 146.226562 170.324219 145.839844 C 170.417969 144.464844 170.132812 143.144531 169.785156 141.832031 C 169.550781 140.9375 169.410156 140.851562 168.511719 141.027344 C 168.296875 139.574219 168.230469 138.101562 167.914062 136.664062 C 167.65625 135.5 167.410156 135.367188 166.464844 135.777344 C 166.019531 134.335938 165.589844 132.886719 165.125 131.449219 C 164.980469 131 164.585938 130.746094 164.21875 131.109375 C 163.730469 131.597656 163.6875 131.21875 163.578125 130.886719 C 163.1875 129.664062 162.839844 128.429688 162.40625 127.222656 C 161.984375 126.039062 161.566406 125.957031 160.660156 126.773438 C 160.628906 126.804688 160.578125 126.8125 160.511719 126.84375 C 159.929688 125.371094 159.332031 123.90625 158.769531 122.425781 C 158.382812 121.425781 158.402344 121.417969 157.414062 121.589844 C 157.425781 119.753906 156.988281 117.976562 156.675781 116.1875 C 156.3125 114.101562 155.84375 112.03125 155.417969 109.957031 C 155.375 109.734375 155.285156 109.546875 155.027344 109.539062 C 154.742188 109.535156 154.707031 109.78125 154.652344 109.976562 C 154.582031 110.222656 154.550781 110.476562 154.492188 110.722656 C 153.984375 112.929688 153.503906 115.140625 153.464844 117.421875 C 153.445312 118.582031 153.386719 119.75 153.597656 120.972656 C 152.886719 120.675781 152.679688 120.949219 152.757812 121.582031 C 152.855469 122.394531 152.945312 123.207031 153.011719 124.023438 C 153.023438 124.1875 153.199219 124.472656 152.855469 124.523438 C 152.195312 124.617188 152.316406 125.007812 152.460938 125.445312 C 152.824219 126.542969 152.785156 127.710938 153.140625 128.875 C 152.230469 128.515625 152.140625 128.578125 152.203125 129.4375 C 152.214844 129.597656 152.242188 129.761719 152.273438 129.921875 C 152.503906 131.054688 152.734375 132.1875 152.972656 133.378906 C 152.578125 133.277344 152.265625 132.824219 151.914062 133.167969 C 151.597656 133.476562 151.8125 133.882812 151.914062 134.230469 C 152.328125 135.691406 152.847656 137.113281 153.53125 138.472656 C 153.613281 138.632812 153.847656 138.785156 153.625 139.023438 C 153.339844 139.324219 153.449219 139.664062 153.558594 140.007812 C 153.972656 141.332031 154.558594 142.570312 155.246094 143.769531 C 155.359375 143.960938 155.574219 144.175781 155.164062 144.285156 C 154.578125 144.445312 154.664062 144.8125 154.890625 145.207031 C 155.335938 145.972656 155.800781 146.730469 156.230469 147.507812 C 156.300781 147.632812 156.574219 147.839844 156.339844 147.964844 C 155.640625 148.328125 155.96875 148.847656 156.140625 149.28125 C 156.667969 150.628906 157.25 151.957031 158.164062 153.109375 C 158.257812 153.226562 158.460938 153.390625 158.210938 153.574219 C 157.882812 153.816406 158.058594 154.03125 158.222656 154.285156 C 159.03125 155.542969 159.773438 156.847656 160.820312 157.9375 C 160.890625 158.011719 161.109375 158.125 160.867188 158.234375 C 160.289062 158.5 160.578125 158.816406 160.8125 159.105469 C 161.871094 160.417969 163.03125 161.640625 164.179688 162.875 C 164.351562 163.058594 164.601562 163.195312 164.554688 163.507812 C 164.496094 163.886719 164.734375 164.113281 164.964844 164.351562 C 165.90625 165.324219 166.730469 166.40625 167.769531 167.324219 C 167.691406 167.363281 167.621094 167.386719 167.554688 167.394531 L 168.8125 168.695312 L 169.328125 169.230469 L 170.871094 170.828125 C 170.871094 170.828125 172.179688 171.894531 171.632812 172.441406 C 171.519531 172.554688 171.441406 172.628906 171.390625 172.679688 C 171.648438 172.832031 173.019531 173.652344 173.328125 173.960938 C 173.667969 174.300781 177.503906 177.90625 177.503906 177.90625 C 177.503906 177.90625 179.480469 180.515625 180.316406 180.773438 C 181.152344 181.027344 181.699219 181.207031 181.699219 181.207031 L 182.117188 181.292969 C 183.015625 181.054688 183.359375 180.648438 183.472656 180.277344 C 183.523438 180.117188 183.527344 179.964844 183.515625 179.835938 Z M 183.515625 179.839844 " fill-opacity="1" fill-rule="nonzero"/><path fill="#4e6d4b" d="M 181.003906 182.367188 C 180.542969 182.367188 177.472656 180.832031 177.390625 180.75 C 177.3125 180.671875 171.578125 178.628906 171.242188 179.070312 C 170.902344 179.511719 170.621094 179.386719 170.621094 179.386719 C 168.722656 177.894531 165.007812 177.644531 164.070312 177.605469 C 164.167969 177.746094 164.15625 177.945312 164.082031 178.210938 C 164.015625 178.199219 163.941406 178.199219 163.882812 178.171875 C 162.625 177.578125 161.253906 177.414062 159.914062 177.136719 C 159.597656 177.070312 159.203125 177.058594 159.226562 177.570312 C 159.246094 178.019531 159.03125 178.007812 158.703125 177.90625 C 158.0625 177.703125 157.417969 177.492188 156.765625 177.335938 C 156.160156 177.191406 155.550781 176.972656 154.914062 177.230469 C 154.726562 177.308594 154.527344 177.359375 154.585938 177.59375 C 154.699219 178.039062 154.5 177.949219 154.207031 177.882812 C 152.632812 177.515625 151.03125 177.359375 149.421875 177.292969 C 148.589844 177.257812 148.347656 177.507812 148.464844 178.335938 C 148.515625 178.695312 148.386719 178.671875 148.164062 178.671875 C 146.777344 178.664062 145.421875 178.902344 144.089844 179.242188 C 142.421875 179.660156 140.675781 179.78125 139.105469 180.558594 C 138.847656 180.6875 138.496094 180.742188 138.589844 181.179688 C 138.675781 181.589844 138.914062 181.753906 139.328125 181.761719 C 142.484375 181.832031 145.578125 182.453125 148.695312 182.789062 C 148.738281 182.96875 148.636719 183.074219 148.574219 183.199219 C 148.175781 183.988281 148.335938 184.257812 149.191406 184.304688 C 150.007812 184.347656 150.828125 184.386719 151.640625 184.457031 C 152.277344 184.511719 152.910156 184.609375 153.585938 184.691406 C 152.832031 185.84375 152.949219 186.21875 154.203125 186.359375 C 155.871094 186.542969 157.515625 186.929688 159.199219 186.96875 C 159.609375 186.976562 159.878906 186.964844 159.601562 187.53125 C 159.257812 188.242188 159.53125 188.566406 160.335938 188.519531 C 160.449219 188.511719 160.566406 188.507812 160.683594 188.492188 C 161.996094 188.296875 163.304688 188.101562 164.617188 187.90625 C 164.761719 187.886719 165 187.757812 164.945312 188.0625 C 164.792969 188.90625 165.3125 188.78125 165.828125 188.726562 C 167.171875 188.582031 168.496094 188.3125 169.890625 187.964844 C 169.867188 188.003906 169.839844 188.039062 169.8125 188.074219 C 170.964844 187.589844 172.441406 186.902344 172.441406 186.902344 C 172.25 187.738281 172.511719 187.824219 172.511719 187.824219 C 175.292969 187.480469 181.464844 182.367188 181.003906 182.367188 Z M 181.003906 182.367188 " fill-opacity="1" fill-rule="nonzero"/><path fill="#364e35" d="M 241.175781 153.1875 C 241.042969 153.007812 240.863281 153.058594 240.667969 153.125 C 240.265625 153.265625 239.914062 153.492188 239.570312 153.726562 C 237.808594 154.917969 236.050781 156.113281 234.292969 157.3125 C 234.0625 157.46875 233.867188 157.726562 233.753906 157.191406 C 233.699219 156.921875 233.425781 156.824219 233.128906 156.957031 C 232.636719 157.167969 232.136719 157.359375 231.648438 157.578125 C 231.460938 157.660156 231.3125 157.796875 231.277344 157.453125 C 231.210938 156.785156 230.816406 156.878906 230.375 157.074219 C 229.308594 157.542969 228.226562 157.972656 227.234375 158.597656 C 227.109375 158.675781 226.933594 158.890625 226.835938 158.671875 C 226.542969 158.011719 226.148438 158.414062 225.796875 158.542969 C 224.863281 158.886719 224.070312 159.503906 223.171875 159.976562 C 223.070312 159.128906 222.671875 158.886719 221.976562 159.242188 C 220.917969 159.78125 219.882812 160.371094 218.832031 160.925781 C 218.519531 161.09375 218.191406 161.511719 217.875 160.894531 C 217.796875 160.742188 217.589844 160.84375 217.429688 160.902344 C 217.007812 161.058594 216.628906 161.289062 216.265625 161.542969 C 215.21875 162.273438 214.175781 163.011719 213.117188 163.753906 C 212.851562 162.625 212.703125 162.566406 211.746094 163.21875 C 211.300781 163.519531 210.878906 163.851562 210.433594 164.15625 C 209.710938 164.652344 209.101562 165.3125 208.28125 165.703125 C 208.191406 164.734375 208.164062 164.738281 207.34375 165.144531 C 206.601562 165.515625 206.019531 166.105469 205.324219 166.53125 C 204.960938 166.757812 204.65625 167.097656 204.199219 166.675781 C 203.957031 166.453125 203.710938 166.699219 203.496094 166.804688 C 202.472656 167.316406 201.460938 167.847656 200.433594 168.351562 C 200.382812 168.375 200.328125 168.410156 200.273438 168.441406 L 198.242188 170.441406 C 198.242188 170.441406 195.582031 172.496094 194.753906 172.496094 L 195.066406 173.183594 C 195.066406 173.183594 192.675781 175.5625 191.21875 175.957031 L 191.511719 176.109375 C 191.511719 176.109375 189.738281 177.988281 188.605469 177.988281 L 188.976562 178.183594 C 188.976562 178.183594 188.171875 179.921875 186.808594 180.714844 L 188.179688 181.019531 L 192.886719 181.019531 L 192.65625 180.773438 C 192.65625 180.773438 193.742188 181.019531 194.507812 181.019531 C 195.167969 181.019531 201.054688 180.585938 202.601562 180.46875 C 202.484375 180.414062 202.335938 180.390625 202.195312 180.363281 C 201.972656 180.316406 201.699219 180.480469 201.441406 180.132812 C 203.136719 179.824219 204.75 179.519531 206.367188 179.234375 C 206.648438 179.1875 207.03125 179.199219 206.980469 178.832031 C 206.859375 177.976562 207.402344 178.273438 207.722656 178.40625 C 209.167969 178.988281 210.515625 178.472656 211.882812 178.117188 C 212.117188 178.054688 212.390625 177.902344 212.257812 177.636719 C 211.921875 176.953125 212.464844 177.15625 212.742188 177.125 C 213.980469 176.996094 215.164062 176.664062 216.3125 176.203125 C 216.675781 176.054688 216.988281 175.839844 216.6875 175.347656 C 216.476562 175 216.804688 175.046875 216.988281 175.003906 C 218.308594 174.6875 219.554688 174.164062 220.769531 173.5625 C 221.839844 173.027344 221.871094 172.90625 221.429688 171.828125 C 222.976562 171.488281 224.535156 171.179688 225.855469 170.214844 C 226.308594 169.882812 226.523438 169.5 226.214844 168.957031 C 226.011719 168.597656 226.089844 168.457031 226.527344 168.363281 C 227.71875 168.109375 228.851562 167.691406 229.851562 166.960938 C 230.257812 166.664062 230.46875 166.363281 230.019531 165.949219 C 229.703125 165.660156 229.785156 165.5 230.136719 165.296875 C 231.429688 164.550781 232.71875 163.792969 233.988281 163.003906 C 234.855469 162.460938 234.84375 162.234375 233.996094 161.71875 C 234.667969 161.199219 235.335938 160.699219 235.988281 160.175781 C 236.238281 159.972656 236.585938 159.613281 236.082031 159.4375 C 235.457031 159.21875 235.804688 159.074219 236.027344 158.875 C 237.804688 157.265625 239.636719 155.707031 241.054688 153.738281 C 241.1875 153.554688 241.328125 153.398438 241.175781 153.1875 Z M 241.175781 153.1875 " fill-opacity="1" fill-rule="nonzero"/><path fill="#364e35" d="M 198.445312 200.632812 C 197.957031 198.757812 197.230469 196.960938 196.777344 195.070312 C 196.554688 194.128906 195.761719 193.378906 195.308594 192.472656 C 194.835938 191.523438 194.007812 190.710938 193.207031 189.953125 C 193.101562 189.851562 192.890625 189.75 193.011719 189.558594 C 193.320312 189.054688 192.96875 188.78125 192.679688 188.476562 C 192.414062 188.199219 192.15625 187.917969 191.894531 187.636719 C 192.015625 187.648438 192.125 187.675781 192.226562 187.710938 L 190.460938 186.273438 L 188.605469 185.296875 L 186.546875 183.804688 L 184.789062 182.933594 L 183.503906 182.222656 L 183.058594 181.972656 C 183.058594 181.972656 183.105469 182.101562 183.167969 182.285156 C 183.300781 182.699219 183.523438 183.414062 183.523438 183.714844 C 183.523438 184.15625 183.964844 185.566406 183.964844 185.566406 L 184.789062 188.828125 C 185.132812 189.242188 185.4375 189.738281 185.636719 190.285156 C 185.867188 190.914062 186.316406 191.082031 186.835938 190.792969 C 187.246094 190.5625 187.351562 190.75 187.527344 191.027344 C 188.046875 191.832031 188.585938 192.625 189.109375 193.429688 C 189.285156 193.695312 189.53125 194.019531 189.824219 193.832031 C 190.359375 193.492188 190.410156 193.859375 190.550781 194.191406 C 190.683594 194.492188 190.824219 194.789062 190.984375 195.070312 C 191.105469 195.28125 191.3125 195.511719 191.546875 195.394531 C 192.289062 195.015625 192.5 195.609375 192.808594 196.03125 C 193.238281 196.613281 193.636719 197.222656 194.09375 197.785156 C 194.285156 198.023438 194.59375 198.375 194.902344 198.140625 C 195.3125 197.835938 195.445312 198.125 195.621094 198.335938 C 196.253906 199.089844 196.867188 199.859375 197.488281 200.621094 C 197.648438 200.816406 197.785156 201.050781 198.089844 201.050781 C 198.375 201.050781 198.535156 200.972656 198.445312 200.632812 Z M 198.445312 200.632812 " fill-opacity="1" fill-rule="nonzero"/><path fill="#364e35" d="M 181.699219 181.207031 C 181.699219 181.207031 181.152344 181.03125 180.316406 180.773438 C 179.480469 180.519531 177.503906 177.90625 177.503906 177.90625 C 177.503906 177.90625 173.667969 174.304688 173.324219 173.960938 C 173.015625 173.652344 171.648438 172.832031 171.386719 172.679688 C 171.441406 172.632812 171.519531 172.558594 171.632812 172.445312 C 172.179688 171.898438 170.867188 170.828125 170.867188 170.828125 L 169.328125 169.230469 C 169.140625 169.070312 168.96875 168.894531 168.808594 168.695312 L 167.554688 167.394531 C 167.332031 167.425781 167.179688 167.292969 167.03125 167.164062 C 166.257812 166.484375 165.492188 165.800781 164.722656 165.117188 C 164.566406 164.976562 164.40625 164.703125 164.226562 164.773438 C 163.585938 165.011719 163.398438 164.472656 163.074219 164.175781 C 162.367188 163.527344 161.679688 162.859375 160.960938 162.222656 C 160.722656 162.015625 160.480469 161.800781 160.109375 161.773438 C 159.707031 161.746094 159.632812 162.128906 159.40625 162.328125 C 158.554688 161.304688 157.757812 160.320312 156.734375 159.558594 C 156.355469 159.277344 155.984375 158.882812 155.421875 159.238281 C 155.195312 159.382812 155.183594 159.101562 155.101562 158.996094 C 154.367188 158.078125 153.558594 157.234375 152.714844 156.421875 C 152.320312 156.046875 151.902344 156.003906 151.589844 156.476562 C 151.328125 156.867188 151.203125 156.609375 151.011719 156.449219 C 150.105469 155.675781 149.203125 154.890625 148.277344 154.140625 C 147.515625 153.53125 147.296875 153.628906 147.140625 154.574219 C 147.117188 154.71875 147.066406 154.839844 147.074219 154.832031 C 146.199219 154.023438 145.34375 153.230469 144.480469 152.445312 C 144.230469 152.21875 144.058594 151.851562 143.648438 151.871094 C 143.242188 151.890625 143.457031 152.414062 143.132812 152.546875 C 142.671875 151.835938 142.222656 151.125 141.765625 150.421875 C 141.578125 150.136719 141.441406 149.761719 141.046875 149.707031 C 140.613281 149.648438 140.734375 150.214844 140.394531 150.359375 C 140.21875 150.171875 140.039062 149.988281 139.867188 149.796875 C 137.929688 147.628906 136.101562 145.378906 134.570312 142.90625 C 134.339844 142.53125 134.074219 142.390625 133.71875 142.5625 C 133.347656 142.742188 133.511719 143.0625 133.640625 143.351562 C 134.769531 145.914062 135.957031 148.453125 137.207031 150.960938 C 137.265625 151.082031 137.480469 151.222656 137.273438 151.359375 C 136.753906 151.710938 137.074219 152.046875 137.28125 152.367188 C 137.984375 153.441406 138.710938 154.503906 139.410156 155.582031 C 139.488281 155.707031 139.753906 155.882812 139.511719 156.035156 C 138.757812 156.515625 139.242188 156.894531 139.605469 157.246094 C 140.367188 157.992188 141.15625 158.710938 142.035156 159.53125 C 140.800781 159.804688 140.765625 159.914062 141.390625 160.710938 C 142.160156 161.695312 143.054688 162.550781 143.996094 163.363281 C 144.089844 163.445312 144.414062 163.546875 144.175781 163.742188 C 143.734375 164.105469 144.066406 164.3125 144.300781 164.507812 C 144.710938 164.851562 145.136719 165.1875 145.589844 165.46875 C 146.488281 166.027344 147.464844 166.449219 148.328125 167.085938 C 147.5 167.8125 147.511719 168 148.375 168.636719 C 149.484375 169.453125 150.671875 170.144531 151.929688 170.714844 C 151.316406 171.375 151.355469 171.503906 152.136719 171.921875 C 153.273438 172.523438 154.503906 172.859375 155.726562 173.234375 C 155.222656 173.996094 155.269531 174.179688 156.097656 174.453125 C 156.980469 174.746094 157.875 174.996094 158.761719 175.277344 C 158.875 175.3125 159.1875 175.195312 159.058594 175.484375 C 158.800781 176.0625 159.289062 176.132812 159.585938 176.25 C 160.867188 176.75 162.199219 177.109375 163.550781 177.355469 C 163.828125 177.40625 163.988281 177.484375 164.070312 177.605469 C 165.003906 177.644531 168.722656 177.894531 170.621094 179.386719 C 170.621094 179.386719 170.902344 179.515625 171.238281 179.074219 C 171.578125 178.632812 177.308594 180.671875 177.390625 180.753906 C 177.472656 180.832031 180.539062 182.367188 181.003906 182.367188 C 181.0625 182.304688 181.152344 182.21875 181.257812 182.117188 C 181.339844 182.035156 181.433594 181.945312 181.527344 181.855469 C 181.820312 181.574219 182.113281 181.292969 182.113281 181.292969 Z M 181.699219 181.207031 " fill-opacity="1" fill-rule="nonzero"/><path fill="#8da68b" d="M 243.238281 181.136719 L 277.042969 181.136719 L 277.042969 183.59375 L 243.238281 183.59375 Z M 243.238281 181.136719 " fill-opacity="1" fill-rule="nonzero"/><path fill="#8da68b" d="M 97.691406 181.136719 L 131.496094 181.136719 L 131.496094 183.59375 L 97.691406 183.59375 Z M 97.691406 181.136719 " fill-opacity="1" fill-rule="nonzero"/><g fill="#ffffff" fill-opacity="1"><g transform="translate(120.694955, 231.270935)"><g><path d="M 5.8125 -1.09375 C 4.65625 -2.957031 3.175781 -5.273438 1.375 -8.046875 L 1.265625 -8.015625 C 1.285156 -7.898438 1.421875 -7.050781 1.671875 -5.46875 C 2.046875 -3.195312 2.25 -2 2.28125 -1.875 C 2.351562 -1.570312 2.546875 -1.457031 2.859375 -1.53125 L 3.421875 -1.6875 L 3.484375 -1.609375 L 3.546875 -0.78125 L 3.140625 -0.703125 C 2.410156 -0.566406 2.007812 -0.488281 1.9375 -0.46875 C 1.707031 -0.414062 1.445312 -0.332031 1.15625 -0.21875 C 0.875 -0.113281 0.6875 -0.046875 0.59375 -0.015625 L 0.484375 -0.859375 C 0.785156 -0.960938 0.976562 -1.109375 1.0625 -1.296875 C 1.15625 -1.484375 1.179688 -1.785156 1.140625 -2.203125 C 1.035156 -3.078125 0.875 -4.3125 0.65625 -5.90625 C 0.4375 -7.507812 0.304688 -8.398438 0.265625 -8.578125 C 0.203125 -8.847656 0.0703125 -9.019531 -0.125 -9.09375 C -0.332031 -9.164062 -0.664062 -9.160156 -1.125 -9.078125 L -1.203125 -9.15625 L -1.25 -9.859375 C -0.488281 -9.984375 0.09375 -10.097656 0.5 -10.203125 C 0.570312 -10.210938 0.882812 -10.300781 1.4375 -10.46875 L 1.78125 -10.578125 C 2.757812 -8.867188 3.941406 -6.921875 5.328125 -4.734375 L 5.65625 -4.234375 L 5.734375 -4.25 C 5.773438 -4.625 5.804688 -4.921875 5.828125 -5.140625 C 6.066406 -7.460938 6.265625 -9.632812 6.421875 -11.65625 C 6.546875 -11.6875 6.648438 -11.707031 6.734375 -11.71875 C 7.191406 -11.800781 7.535156 -11.875 7.765625 -11.9375 C 7.984375 -12 8.28125 -12.085938 8.65625 -12.203125 C 9.03125 -12.316406 9.25 -12.382812 9.3125 -12.40625 L 9.375 -12.359375 L 9.453125 -11.640625 C 9.035156 -11.484375 8.757812 -11.320312 8.625 -11.15625 C 8.488281 -11 8.445312 -10.796875 8.5 -10.546875 C 8.570312 -10.273438 8.8125 -9.476562 9.21875 -8.15625 C 9.625 -6.84375 9.984375 -5.710938 10.296875 -4.765625 C 10.421875 -4.390625 10.53125 -4.113281 10.625 -3.9375 C 10.726562 -3.757812 10.832031 -3.644531 10.9375 -3.59375 C 11.050781 -3.539062 11.1875 -3.53125 11.34375 -3.5625 C 11.4375 -3.582031 11.523438 -3.609375 11.609375 -3.640625 C 11.691406 -3.679688 11.738281 -3.703125 11.75 -3.703125 L 11.828125 -3.640625 L 11.875 -2.796875 C 11.832031 -2.785156 11.640625 -2.75 11.296875 -2.6875 C 10.953125 -2.625 10.660156 -2.5625 10.421875 -2.5 C 10.054688 -2.414062 9.671875 -2.300781 9.265625 -2.15625 C 8.859375 -2.019531 8.644531 -1.945312 8.625 -1.9375 L 8.515625 -2.796875 C 8.796875 -2.898438 8.992188 -3.023438 9.109375 -3.171875 C 9.222656 -3.328125 9.253906 -3.515625 9.203125 -3.734375 C 9.171875 -3.859375 9.019531 -4.328125 8.75 -5.140625 C 8.488281 -5.960938 8.273438 -6.632812 8.109375 -7.15625 C 7.628906 -8.632812 7.378906 -9.410156 7.359375 -9.484375 L 7.28125 -9.46875 C 6.914062 -6.175781 6.628906 -3.476562 6.421875 -1.375 Z M 5.8125 -1.09375 "/></g></g></g><g fill="#ffffff" fill-opacity="1"><g transform="translate(134.467974, 228.026343)"><g><path d="M 4.890625 -0.734375 C 3.785156 -0.523438 2.890625 -0.644531 2.203125 -1.09375 C 1.523438 -1.550781 1.082031 -2.316406 0.875 -3.390625 L -0.046875 -8.3125 C -0.109375 -8.625 -0.179688 -8.828125 -0.265625 -8.921875 C -0.359375 -9.023438 -0.507812 -9.054688 -0.71875 -9.015625 C -0.820312 -9.003906 -0.921875 -8.984375 -1.015625 -8.953125 C -1.117188 -8.921875 -1.1875 -8.898438 -1.21875 -8.890625 L -1.25 -8.953125 L -1.3125 -9.765625 C -1.175781 -9.785156 -0.914062 -9.820312 -0.53125 -9.875 C -0.15625 -9.9375 0.226562 -10.003906 0.625 -10.078125 C 0.882812 -10.128906 1.195312 -10.207031 1.5625 -10.3125 C 1.925781 -10.425781 2.160156 -10.5 2.265625 -10.53125 L 2.328125 -9.6875 C 1.992188 -9.570312 1.773438 -9.441406 1.671875 -9.296875 C 1.578125 -9.148438 1.546875 -8.945312 1.578125 -8.6875 L 2.3125 -4.234375 C 2.476562 -3.335938 2.796875 -2.6875 3.265625 -2.28125 C 3.742188 -1.875 4.34375 -1.738281 5.0625 -1.875 C 5.789062 -2.007812 6.3125 -2.304688 6.625 -2.765625 C 6.9375 -3.234375 7.019531 -3.84375 6.875 -4.59375 C 6.71875 -5.382812 6.535156 -6.285156 6.328125 -7.296875 C 6.117188 -8.316406 5.972656 -9.023438 5.890625 -9.421875 C 5.804688 -9.753906 5.71875 -9.96875 5.625 -10.0625 C 5.539062 -10.15625 5.394531 -10.179688 5.1875 -10.140625 C 5.082031 -10.117188 4.972656 -10.09375 4.859375 -10.0625 C 4.742188 -10.03125 4.664062 -10.007812 4.625 -10 L 4.578125 -10.046875 L 4.546875 -10.875 C 4.671875 -10.894531 4.898438 -10.925781 5.234375 -10.96875 C 5.578125 -11.019531 5.925781 -11.082031 6.28125 -11.15625 C 6.5625 -11.207031 6.867188 -11.28125 7.203125 -11.375 C 7.535156 -11.476562 7.753906 -11.546875 7.859375 -11.578125 L 7.9375 -10.75 C 7.65625 -10.644531 7.453125 -10.550781 7.328125 -10.46875 C 7.210938 -10.382812 7.140625 -10.289062 7.109375 -10.1875 C 7.078125 -10.082031 7.078125 -9.929688 7.109375 -9.734375 L 8.03125 -4.828125 C 8.238281 -3.742188 8.066406 -2.847656 7.515625 -2.140625 C 6.972656 -1.429688 6.097656 -0.960938 4.890625 -0.734375 Z M 4.890625 -0.734375 "/></g></g></g><g fill="#ffffff" fill-opacity="1"><g transform="translate(145.775231, 225.912912)"><g><path d="M 8.4375 -0.671875 C 7.445312 -1.804688 6.492188 -2.882812 5.578125 -3.90625 C 4.671875 -4.9375 3.925781 -5.769531 3.34375 -6.40625 C 2.757812 -7.039062 2.382812 -7.4375 2.21875 -7.59375 L 2.109375 -7.578125 L 2.859375 -1.875 C 2.898438 -1.632812 2.960938 -1.472656 3.046875 -1.390625 C 3.140625 -1.304688 3.28125 -1.273438 3.46875 -1.296875 L 4.1875 -1.421875 L 4.234375 -1.359375 L 4.21875 -0.53125 C 4.082031 -0.519531 3.84375 -0.5 3.5 -0.46875 C 3.15625 -0.4375 2.800781 -0.394531 2.4375 -0.34375 C 2.144531 -0.300781 1.832031 -0.238281 1.5 -0.15625 C 1.164062 -0.0703125 0.945312 -0.0195312 0.84375 0 L 0.828125 -0.84375 C 1.128906 -0.9375 1.34375 -1.0625 1.46875 -1.21875 C 1.601562 -1.382812 1.65625 -1.625 1.625 -1.9375 L 0.90625 -8.3125 C 0.863281 -8.625 0.742188 -8.832031 0.546875 -8.9375 C 0.347656 -9.050781 0 -9.097656 -0.5 -9.078125 L -0.578125 -9.171875 L -0.59375 -9.890625 C -0.476562 -9.898438 -0.253906 -9.914062 0.078125 -9.9375 C 0.421875 -9.96875 0.707031 -10 0.9375 -10.03125 C 1.164062 -10.0625 1.40625 -10.101562 1.65625 -10.15625 C 1.90625 -10.207031 2.066406 -10.242188 2.140625 -10.265625 C 2.953125 -9.285156 3.78125 -8.328125 4.625 -7.390625 C 5.46875 -6.460938 6.164062 -5.691406 6.71875 -5.078125 C 7.269531 -4.472656 7.625 -4.097656 7.78125 -3.953125 L 7.890625 -3.96875 L 7.09375 -9.421875 C 7.03125 -9.847656 6.828125 -10.035156 6.484375 -9.984375 L 5.953125 -9.890625 L 5.890625 -9.984375 L 5.90625 -10.796875 C 6.03125 -10.804688 6.253906 -10.820312 6.578125 -10.84375 C 6.898438 -10.875 7.234375 -10.914062 7.578125 -10.96875 C 7.859375 -11.007812 8.171875 -11.066406 8.515625 -11.140625 C 8.859375 -11.222656 9.082031 -11.28125 9.1875 -11.3125 L 9.234375 -10.453125 C 8.890625 -10.347656 8.648438 -10.210938 8.515625 -10.046875 C 8.390625 -9.878906 8.335938 -9.648438 8.359375 -9.359375 L 9.328125 -0.984375 Z M 8.4375 -0.671875 "/></g></g></g><g fill="#ffffff" fill-opacity="1"><g transform="translate(157.981256, 224.231308)"><g><path d="M 5.09375 -0.296875 C 4.164062 -0.210938 3.34375 -0.332031 2.625 -0.65625 C 1.914062 -0.976562 1.335938 -1.476562 0.890625 -2.15625 C 0.453125 -2.832031 0.1875 -3.65625 0.09375 -4.625 C -0.0078125 -5.65625 0.117188 -6.597656 0.484375 -7.453125 C 0.859375 -8.316406 1.429688 -9.015625 2.203125 -9.546875 C 2.972656 -10.085938 3.875 -10.40625 4.90625 -10.5 C 5.28125 -10.539062 5.675781 -10.550781 6.09375 -10.53125 C 6.507812 -10.507812 6.859375 -10.484375 7.140625 -10.453125 C 7.429688 -10.429688 7.617188 -10.410156 7.703125 -10.390625 L 7.796875 -10.265625 C 7.773438 -10.203125 7.75 -10.039062 7.71875 -9.78125 C 7.695312 -9.53125 7.679688 -9.207031 7.671875 -8.8125 C 7.660156 -8.414062 7.660156 -7.988281 7.671875 -7.53125 L 6.609375 -7.359375 C 6.609375 -7.410156 6.609375 -7.503906 6.609375 -7.640625 C 6.609375 -7.785156 6.597656 -7.953125 6.578125 -8.140625 C 6.492188 -9.035156 5.78125 -9.421875 4.4375 -9.296875 C 3.519531 -9.203125 2.828125 -8.800781 2.359375 -8.09375 C 1.898438 -7.394531 1.726562 -6.46875 1.84375 -5.3125 C 1.925781 -4.445312 2.125 -3.707031 2.4375 -3.09375 C 2.75 -2.488281 3.15625 -2.039062 3.65625 -1.75 C 4.15625 -1.457031 4.710938 -1.335938 5.328125 -1.390625 C 5.960938 -1.453125 6.445312 -1.679688 6.78125 -2.078125 C 7.125 -2.484375 7.335938 -3.085938 7.421875 -3.890625 L 8.46875 -4.078125 C 8.457031 -3.910156 8.429688 -3.539062 8.390625 -2.96875 C 8.359375 -2.40625 8.347656 -1.878906 8.359375 -1.390625 L 8.28125 -1.21875 C 8.289062 -1.207031 8.132812 -1.132812 7.8125 -1 C 7.488281 -0.863281 7.09375 -0.722656 6.625 -0.578125 C 6.15625 -0.441406 5.644531 -0.347656 5.09375 -0.296875 Z M 5.09375 -0.296875 "/></g></g></g><g fill="#ffffff" fill-opacity="1"><g transform="translate(168.687925, 223.204169)"><g><path d="M 0.828125 -0.703125 C 1.273438 -0.816406 1.570312 -0.96875 1.71875 -1.15625 C 1.875 -1.34375 1.941406 -1.65625 1.921875 -2.09375 L 1.59375 -8.265625 C 1.582031 -8.585938 1.535156 -8.800781 1.453125 -8.90625 C 1.378906 -9.019531 1.226562 -9.070312 1 -9.0625 L 0.515625 -9 L 0.4375 -9.09375 L 0.53125 -9.859375 L 1.46875 -9.890625 C 1.664062 -9.890625 1.9375 -9.898438 2.28125 -9.921875 C 2.582031 -9.941406 3.222656 -10.015625 4.203125 -10.140625 L 4.171875 -9.3125 C 3.890625 -9.25 3.6875 -9.175781 3.5625 -9.09375 C 3.4375 -9.019531 3.351562 -8.90625 3.3125 -8.75 C 3.28125 -8.601562 3.257812 -8.351562 3.25 -8 L 3.296875 -5.65625 L 5.609375 -5.75 C 6.171875 -5.78125 6.851562 -5.859375 7.65625 -5.984375 L 7.53125 -8.5625 C 7.519531 -8.882812 7.472656 -9.097656 7.390625 -9.203125 C 7.304688 -9.316406 7.15625 -9.367188 6.9375 -9.359375 C 6.789062 -9.347656 6.625 -9.328125 6.4375 -9.296875 L 6.375 -9.390625 L 6.4375 -10.171875 L 6.875 -10.171875 L 8.140625 -10.21875 C 8.453125 -10.238281 9.128906 -10.316406 10.171875 -10.453125 L 10.125 -9.625 C 9.757812 -9.550781 9.515625 -9.453125 9.390625 -9.328125 C 9.265625 -9.203125 9.203125 -8.992188 9.203125 -8.703125 C 9.191406 -7.691406 9.195312 -6.5625 9.21875 -5.3125 C 9.25 -4.070312 9.285156 -3.078125 9.328125 -2.328125 C 9.347656 -1.921875 9.40625 -1.648438 9.5 -1.515625 C 9.601562 -1.378906 9.78125 -1.316406 10.03125 -1.328125 C 10.144531 -1.328125 10.359375 -1.351562 10.671875 -1.40625 L 10.734375 -1.328125 L 10.640625 -0.5 C 10.503906 -0.488281 10.394531 -0.488281 10.3125 -0.5 C 9.582031 -0.476562 9.007812 -0.457031 8.59375 -0.4375 L 6.671875 -0.3125 L 6.765625 -1.140625 C 7.078125 -1.171875 7.3125 -1.226562 7.46875 -1.3125 C 7.625 -1.40625 7.726562 -1.554688 7.78125 -1.765625 C 7.832031 -1.984375 7.84375 -2.304688 7.8125 -2.734375 L 7.703125 -4.890625 L 5.6875 -4.796875 C 5.445312 -4.785156 5.113281 -4.753906 4.6875 -4.703125 C 4.269531 -4.660156 3.816406 -4.609375 3.328125 -4.546875 L 3.40625 -2.03125 C 3.425781 -1.601562 3.476562 -1.320312 3.5625 -1.1875 C 3.644531 -1.0625 3.816406 -1.003906 4.078125 -1.015625 C 4.171875 -1.023438 4.382812 -1.054688 4.71875 -1.109375 L 4.765625 -1.03125 L 4.671875 -0.1875 C 4.515625 -0.1875 4.285156 -0.1875 3.984375 -0.1875 C 3.691406 -0.1875 3.40625 -0.175781 3.125 -0.15625 C 2.707031 -0.132812 2.238281 -0.09375 1.71875 -0.03125 C 1.195312 0.03125 0.878906 0.0859375 0.765625 0.140625 Z M 0.828125 -0.703125 "/></g></g></g><g fill="#ffffff" fill-opacity="1"><g transform="translate(181.457959, 222.633527)"><g><path d="M 0.8125 -0.671875 C 1.28125 -0.765625 1.59375 -0.898438 1.75 -1.078125 C 1.914062 -1.265625 1.992188 -1.578125 1.984375 -2.015625 L 1.90625 -8.203125 C 1.90625 -8.523438 1.863281 -8.742188 1.78125 -8.859375 C 1.707031 -8.972656 1.554688 -9.023438 1.328125 -9.015625 L 0.734375 -8.984375 L 0.6875 -9.078125 L 0.796875 -9.84375 L 1.828125 -9.84375 C 2.046875 -9.832031 2.351562 -9.828125 2.75 -9.828125 C 3.03125 -9.835938 3.679688 -9.890625 4.703125 -9.984375 L 4.625 -9.15625 C 4.21875 -9.09375 3.941406 -9 3.796875 -8.875 C 3.660156 -8.757812 3.585938 -8.5625 3.578125 -8.28125 C 3.546875 -7.21875 3.519531 -6.054688 3.5 -4.796875 C 3.476562 -3.546875 3.46875 -2.582031 3.46875 -1.90625 C 3.476562 -1.476562 3.519531 -1.195312 3.59375 -1.0625 C 3.675781 -0.925781 3.847656 -0.859375 4.109375 -0.859375 C 4.273438 -0.867188 4.523438 -0.890625 4.859375 -0.921875 L 4.90625 -0.84375 L 4.78125 -0.015625 C 4.582031 -0.015625 4.429688 -0.0195312 4.328125 -0.03125 L 2.671875 -0.03125 C 2.085938 -0.03125 1.441406 0.03125 0.734375 0.15625 Z M 0.8125 -0.671875 "/></g></g></g><g fill="#ffffff" fill-opacity="1"><g transform="translate(188.321377, 222.535454)"><g><path d="M 8.390625 -2.546875 C 8.191406 -1.742188 8.03125 -0.847656 7.90625 0.140625 L 7.796875 0.265625 C 5.742188 0.148438 4.179688 0.0820312 3.109375 0.0625 C 2.304688 0.0390625 1.519531 0.078125 0.75 0.171875 L 0.859375 -0.671875 C 1.304688 -0.722656 1.613281 -0.835938 1.78125 -1.015625 C 1.957031 -1.191406 2.050781 -1.503906 2.0625 -1.953125 L 2.171875 -8.125 C 2.179688 -8.445312 2.15625 -8.664062 2.09375 -8.78125 C 2.03125 -8.90625 1.890625 -8.96875 1.671875 -8.96875 L 1.15625 -8.953125 L 1.109375 -9.046875 L 1.25 -9.828125 C 2.4375 -9.765625 3.242188 -9.734375 3.671875 -9.734375 C 4.859375 -9.703125 5.804688 -9.691406 6.515625 -9.703125 C 7.222656 -9.722656 7.816406 -9.765625 8.296875 -9.828125 L 8.375 -9.703125 C 8.28125 -9.316406 8.191406 -8.878906 8.109375 -8.390625 C 8.035156 -7.898438 7.984375 -7.453125 7.953125 -7.046875 L 6.9375 -6.984375 L 6.984375 -7.625 C 6.992188 -7.957031 6.953125 -8.191406 6.859375 -8.328125 C 6.765625 -8.472656 6.578125 -8.570312 6.296875 -8.625 C 6.015625 -8.675781 5.523438 -8.707031 4.828125 -8.71875 C 4.515625 -8.726562 4.296875 -8.722656 4.171875 -8.703125 C 4.046875 -8.679688 3.960938 -8.628906 3.921875 -8.546875 C 3.890625 -8.472656 3.867188 -8.347656 3.859375 -8.171875 L 3.6875 -5.453125 L 5.203125 -5.40625 C 5.421875 -5.40625 5.703125 -5.414062 6.046875 -5.4375 C 6.390625 -5.46875 6.71875 -5.5 7.03125 -5.53125 L 7.109375 -5.421875 L 6.890625 -4.328125 C 5.816406 -4.378906 5.125 -4.410156 4.8125 -4.421875 C 4.519531 -4.429688 4.128906 -4.410156 3.640625 -4.359375 L 3.53125 -1.765625 C 3.53125 -1.472656 3.546875 -1.265625 3.578125 -1.140625 C 3.617188 -1.015625 3.710938 -0.929688 3.859375 -0.890625 C 4.003906 -0.847656 4.253906 -0.820312 4.609375 -0.8125 C 5.378906 -0.800781 5.929688 -0.832031 6.265625 -0.90625 C 6.609375 -0.976562 6.851562 -1.132812 7 -1.375 C 7.144531 -1.613281 7.269531 -2.019531 7.375 -2.59375 L 8.328125 -2.65625 Z M 8.390625 -2.546875 "/></g></g></g><g fill="#ffffff" fill-opacity="1"><g transform="translate(198.72941, 222.806389)"><g/></g></g><g fill="#ffffff" fill-opacity="1"><g transform="translate(202.886427, 222.940272)"><g><path d="M 5.859375 0.78125 C 5.347656 -1.34375 4.671875 -4.003906 3.828125 -7.203125 L 3.71875 -7.203125 C 3.707031 -7.085938 3.566406 -6.242188 3.296875 -4.671875 C 2.941406 -2.398438 2.757812 -1.195312 2.75 -1.0625 C 2.71875 -0.75 2.863281 -0.578125 3.1875 -0.546875 L 3.765625 -0.515625 L 3.8125 -0.4375 L 3.609375 0.359375 L 3.203125 0.3125 C 2.472656 0.21875 2.070312 0.171875 2 0.171875 C 1.757812 0.148438 1.484375 0.144531 1.171875 0.15625 C 0.859375 0.164062 0.65625 0.171875 0.5625 0.171875 L 0.734375 -0.65625 C 1.046875 -0.664062 1.273438 -0.742188 1.421875 -0.890625 C 1.578125 -1.046875 1.695312 -1.328125 1.78125 -1.734375 C 1.957031 -2.585938 2.191406 -3.804688 2.484375 -5.390625 C 2.773438 -6.984375 2.925781 -7.875 2.9375 -8.0625 C 2.957031 -8.332031 2.882812 -8.535156 2.71875 -8.671875 C 2.550781 -8.804688 2.242188 -8.90625 1.796875 -8.96875 L 1.734375 -9.078125 L 1.921875 -9.75 C 2.671875 -9.632812 3.25 -9.5625 3.65625 -9.53125 C 3.726562 -9.519531 4.0625 -9.503906 4.65625 -9.484375 L 5 -9.484375 C 5.40625 -7.546875 5.921875 -5.320312 6.546875 -2.8125 L 6.703125 -2.234375 L 6.796875 -2.234375 C 6.941406 -2.578125 7.050781 -2.84375 7.125 -3.03125 C 8.09375 -5.164062 8.96875 -7.171875 9.75 -9.046875 C 9.875 -9.035156 9.976562 -9.019531 10.0625 -9 C 10.53125 -8.945312 10.878906 -8.914062 11.109375 -8.90625 C 11.335938 -8.882812 11.648438 -8.875 12.046875 -8.875 C 12.441406 -8.875 12.671875 -8.867188 12.734375 -8.859375 L 12.765625 -8.796875 L 12.625 -8.078125 C 12.175781 -8.066406 11.863281 -8.003906 11.6875 -7.890625 C 11.507812 -7.785156 11.410156 -7.609375 11.390625 -7.359375 C 11.367188 -7.078125 11.34375 -6.242188 11.3125 -4.859375 C 11.289062 -3.484375 11.28125 -2.300781 11.28125 -1.3125 C 11.28125 -0.90625 11.296875 -0.597656 11.328125 -0.390625 C 11.367188 -0.191406 11.429688 -0.0507812 11.515625 0.03125 C 11.597656 0.113281 11.71875 0.160156 11.875 0.171875 C 11.96875 0.179688 12.0625 0.1875 12.15625 0.1875 C 12.257812 0.1875 12.316406 0.1875 12.328125 0.1875 L 12.359375 0.265625 L 12.15625 1.0625 C 12.101562 1.0625 11.90625 1.035156 11.5625 0.984375 C 11.226562 0.941406 10.9375 0.910156 10.6875 0.890625 C 10.3125 0.859375 9.90625 0.84375 9.46875 0.84375 C 9.039062 0.851562 8.816406 0.859375 8.796875 0.859375 L 8.96875 0.03125 C 9.269531 0.0078125 9.492188 -0.0507812 9.640625 -0.15625 C 9.796875 -0.269531 9.882812 -0.441406 9.90625 -0.671875 C 9.914062 -0.796875 9.925781 -1.285156 9.9375 -2.140625 C 9.945312 -3.003906 9.953125 -3.707031 9.953125 -4.25 C 9.953125 -5.800781 9.957031 -6.613281 9.96875 -6.6875 L 9.875 -6.6875 C 8.488281 -3.675781 7.378906 -1.210938 6.546875 0.703125 Z M 5.859375 0.78125 "/></g></g></g><g fill="#ffffff" fill-opacity="1"><g transform="translate(217.021712, 224.22408)"><g><path d="M 0.90625 -0.546875 C 1.375 -0.585938 1.703125 -0.679688 1.890625 -0.828125 C 2.078125 -0.984375 2.195312 -1.28125 2.25 -1.71875 L 3.015625 -7.859375 C 3.054688 -8.179688 3.046875 -8.40625 2.984375 -8.53125 C 2.921875 -8.65625 2.773438 -8.726562 2.546875 -8.75 L 1.96875 -8.796875 L 1.9375 -8.90625 L 2.140625 -9.640625 L 3.15625 -9.5 C 3.375 -9.457031 3.679688 -9.410156 4.078125 -9.359375 C 4.347656 -9.328125 5 -9.289062 6.03125 -9.25 L 5.84375 -8.4375 C 5.425781 -8.4375 5.140625 -8.382812 4.984375 -8.28125 C 4.828125 -8.1875 4.722656 -8 4.671875 -7.71875 C 4.503906 -6.664062 4.320312 -5.519531 4.125 -4.28125 C 3.925781 -3.039062 3.785156 -2.082031 3.703125 -1.40625 C 3.648438 -0.976562 3.648438 -0.691406 3.703125 -0.546875 C 3.765625 -0.410156 3.925781 -0.328125 4.1875 -0.296875 C 4.351562 -0.273438 4.609375 -0.257812 4.953125 -0.25 L 4.984375 -0.171875 L 4.75 0.640625 C 4.550781 0.609375 4.398438 0.582031 4.296875 0.5625 L 2.65625 0.328125 C 2.070312 0.253906 1.425781 0.234375 0.71875 0.265625 Z M 0.90625 -0.546875 "/></g></g></g><g fill="#ffffff" fill-opacity="1"><g transform="translate(223.82501, 225.053665)"><g><path d="M 5.421875 0.875 L 5.59375 0.15625 C 5.957031 0.195312 6.226562 0.191406 6.40625 0.140625 C 6.582031 0.0976562 6.679688 0 6.703125 -0.15625 C 6.734375 -0.3125 6.675781 -0.535156 6.53125 -0.828125 L 5.390625 -3.3125 L 3.90625 -1.84375 C 3.570312 -1.519531 3.347656 -1.285156 3.234375 -1.140625 C 3.117188 -1.003906 3.050781 -0.875 3.03125 -0.75 C 3.007812 -0.613281 3.054688 -0.5 3.171875 -0.40625 C 3.296875 -0.3125 3.5 -0.226562 3.78125 -0.15625 L 3.8125 -0.0625 L 3.59375 0.671875 C 3.457031 0.640625 3.179688 0.578125 2.765625 0.484375 C 2.359375 0.390625 2.046875 0.328125 1.828125 0.296875 C 1.484375 0.234375 1.15625 0.1875 0.84375 0.15625 C 0.539062 0.125 0.328125 0.101562 0.203125 0.09375 L 0.171875 -0.03125 L 0.390625 -0.75 C 0.765625 -0.820312 1.160156 -0.992188 1.578125 -1.265625 C 1.992188 -1.535156 2.488281 -1.929688 3.0625 -2.453125 L 4.984375 -4.234375 L 3.578125 -7.25 C 3.378906 -7.675781 3.132812 -8.015625 2.84375 -8.265625 C 2.5625 -8.515625 2.207031 -8.710938 1.78125 -8.859375 L 1.75 -8.921875 L 1.96875 -9.65625 C 2.101562 -9.625 2.390625 -9.566406 2.828125 -9.484375 C 3.273438 -9.398438 3.742188 -9.316406 4.234375 -9.234375 C 4.679688 -9.160156 5.125 -9.109375 5.5625 -9.078125 C 6.007812 -9.046875 6.296875 -9.023438 6.421875 -9.015625 L 6.4375 -8.890625 L 6.28125 -8.21875 C 5.90625 -8.257812 5.628906 -8.25 5.453125 -8.1875 C 5.273438 -8.132812 5.171875 -8.03125 5.140625 -7.875 C 5.128906 -7.757812 5.210938 -7.476562 5.390625 -7.03125 C 5.566406 -6.582031 5.859375 -5.90625 6.265625 -5 L 6.921875 -5.65625 C 7.398438 -6.113281 7.769531 -6.488281 8.03125 -6.78125 C 8.300781 -7.070312 8.445312 -7.28125 8.46875 -7.40625 C 8.488281 -7.539062 8.441406 -7.648438 8.328125 -7.734375 C 8.210938 -7.828125 8.007812 -7.90625 7.71875 -7.96875 L 7.703125 -8.046875 L 7.90625 -8.75 L 8.328125 -8.640625 C 8.472656 -8.609375 8.691406 -8.5625 8.984375 -8.5 C 9.285156 -8.4375 9.519531 -8.390625 9.6875 -8.359375 C 9.957031 -8.316406 10.265625 -8.273438 10.609375 -8.234375 C 10.953125 -8.203125 11.175781 -8.179688 11.28125 -8.171875 L 11.328125 -8.046875 L 11.125 -7.34375 C 10.664062 -7.300781 10.289062 -7.191406 10 -7.015625 C 9.707031 -6.847656 9.316406 -6.535156 8.828125 -6.078125 L 6.71875 -4.078125 L 8.25 -0.796875 C 8.476562 -0.347656 8.726562 -0.00390625 9 0.234375 C 9.28125 0.484375 9.644531 0.664062 10.09375 0.78125 L 10.125 0.859375 L 9.90625 1.640625 C 9.757812 1.609375 9.5 1.554688 9.125 1.484375 C 8.75 1.410156 8.363281 1.34375 7.96875 1.28125 C 7.632812 1.226562 7.175781 1.171875 6.59375 1.109375 C 6.019531 1.046875 5.644531 1.003906 5.46875 0.984375 Z M 5.421875 0.875 "/></g></g></g><g fill="#ffffff" fill-opacity="1"><g transform="translate(235.149391, 226.911188)"><g><path d="M 8.71875 -0.984375 C 8.375 -0.234375 8.050781 0.613281 7.75 1.5625 L 7.625 1.671875 C 5.625 1.179688 4.097656 0.832031 3.046875 0.625 C 2.265625 0.457031 1.484375 0.351562 0.703125 0.3125 L 0.96875 -0.5 C 1.414062 -0.476562 1.738281 -0.535156 1.9375 -0.671875 C 2.132812 -0.816406 2.28125 -1.109375 2.375 -1.546875 L 3.609375 -7.59375 C 3.671875 -7.914062 3.679688 -8.140625 3.640625 -8.265625 C 3.597656 -8.390625 3.46875 -8.472656 3.25 -8.515625 L 2.765625 -8.578125 L 2.71875 -8.6875 L 3 -9.4375 C 4.144531 -9.164062 4.929688 -8.988281 5.359375 -8.90625 C 6.515625 -8.664062 7.441406 -8.488281 8.140625 -8.375 C 8.835938 -8.257812 9.4375 -8.1875 9.9375 -8.15625 L 9.96875 -8.015625 C 9.820312 -7.660156 9.664062 -7.25 9.5 -6.78125 C 9.332031 -6.320312 9.195312 -5.894531 9.09375 -5.5 L 8.078125 -5.625 L 8.234375 -6.25 C 8.304688 -6.570312 8.3125 -6.804688 8.25 -6.953125 C 8.1875 -7.109375 8.019531 -7.238281 7.75 -7.34375 C 7.488281 -7.445312 7.015625 -7.566406 6.328125 -7.703125 C 6.023438 -7.765625 5.804688 -7.796875 5.671875 -7.796875 C 5.546875 -7.804688 5.457031 -7.773438 5.40625 -7.703125 C 5.351562 -7.640625 5.304688 -7.519531 5.265625 -7.34375 L 4.609375 -4.703125 L 6.09375 -4.390625 C 6.3125 -4.347656 6.59375 -4.304688 6.9375 -4.265625 C 7.28125 -4.222656 7.609375 -4.191406 7.921875 -4.171875 L 7.96875 -4.046875 L 7.546875 -3.015625 C 6.503906 -3.265625 5.832031 -3.421875 5.53125 -3.484375 C 5.238281 -3.535156 4.847656 -3.585938 4.359375 -3.640625 L 3.78125 -1.09375 C 3.726562 -0.800781 3.707031 -0.59375 3.71875 -0.46875 C 3.738281 -0.351562 3.816406 -0.257812 3.953125 -0.1875 C 4.097656 -0.113281 4.34375 -0.0390625 4.6875 0.03125 C 5.445312 0.1875 6 0.253906 6.34375 0.234375 C 6.6875 0.222656 6.953125 0.113281 7.140625 -0.09375 C 7.328125 -0.300781 7.519531 -0.671875 7.71875 -1.203125 L 8.65625 -1.109375 Z M 8.71875 -0.984375 "/></g></g></g><g fill="#ffffff" fill-opacity="1"><g transform="translate(245.284845, 229.001732)"><g><path d="M 7.5625 2.140625 C 7.289062 2.066406 7.046875 1.875 6.828125 1.5625 C 6.609375 1.25 6.429688 0.832031 6.296875 0.3125 L 5.546875 -2.796875 L 4.390625 -3.078125 L 3.875 -1.109375 C 3.78125 -0.734375 3.738281 -0.460938 3.75 -0.296875 C 3.757812 -0.128906 3.828125 -0.00390625 3.953125 0.078125 C 4.078125 0.160156 4.304688 0.242188 4.640625 0.328125 L 4.65625 0.40625 L 4.34375 1.140625 C 4.195312 1.085938 3.925781 1.007812 3.53125 0.90625 C 3.144531 0.800781 2.757812 0.703125 2.375 0.609375 C 2.0625 0.523438 1.726562 0.445312 1.375 0.375 C 1.019531 0.3125 0.796875 0.269531 0.703125 0.25 L 1.03125 -0.546875 C 1.488281 -0.472656 1.804688 -0.5 1.984375 -0.625 C 2.171875 -0.75 2.320312 -1.023438 2.4375 -1.453125 L 3.921875 -7.484375 C 3.992188 -7.785156 4.007812 -7.992188 3.96875 -8.109375 C 3.925781 -8.234375 3.800781 -8.320312 3.59375 -8.375 C 3.488281 -8.40625 3.382812 -8.425781 3.28125 -8.4375 C 3.1875 -8.445312 3.125 -8.457031 3.09375 -8.46875 L 3.046875 -8.5625 L 3.359375 -9.3125 C 3.484375 -9.28125 3.71875 -9.210938 4.0625 -9.109375 C 4.40625 -9.015625 4.75 -8.925781 5.09375 -8.84375 C 5.457031 -8.75 5.84375 -8.660156 6.25 -8.578125 C 6.664062 -8.492188 6.957031 -8.4375 7.125 -8.40625 C 8.132812 -8.15625 8.875 -7.742188 9.34375 -7.171875 C 9.8125 -6.597656 9.953125 -5.929688 9.765625 -5.171875 C 9.617188 -4.585938 9.300781 -4.09375 8.8125 -3.6875 C 8.320312 -3.28125 7.695312 -3.003906 6.9375 -2.859375 L 7.84375 -0.09375 C 8.007812 0.4375 8.195312 0.828125 8.40625 1.078125 C 8.625 1.335938 8.914062 1.507812 9.28125 1.59375 L 9.34375 1.734375 L 9.09375 2.328125 Z M 6.109375 -3.609375 C 6.359375 -3.648438 6.582031 -3.703125 6.78125 -3.765625 C 6.976562 -3.828125 7.210938 -3.976562 7.484375 -4.21875 C 7.765625 -4.46875 7.960938 -4.828125 8.078125 -5.296875 C 8.367188 -6.503906 7.679688 -7.316406 6.015625 -7.734375 C 5.910156 -7.753906 5.832031 -7.75 5.78125 -7.71875 C 5.738281 -7.6875 5.695312 -7.597656 5.65625 -7.453125 C 5.238281 -6.117188 4.914062 -5.003906 4.6875 -4.109375 Z M 6.109375 -3.609375 "/></g></g></g><g fill="#364e35" fill-opacity="1"><g transform="translate(166.36543, 250.401199)"><g><path d="M 4.464844 -2.035156 C 4.464844 -2.5625 4.253906 -3.023438 3.847656 -3.421875 C 3.449219 -3.800781 2.972656 -3.996094 2.433594 -3.996094 C 1.867188 -3.996094 1.386719 -3.792969 0.992188 -3.394531 C 0.59375 -2.996094 0.398438 -2.519531 0.398438 -1.964844 C 0.398438 -1.398438 0.59375 -0.917969 0.992188 -0.53125 C 1.175781 -0.34375 1.386719 -0.203125 1.636719 -0.0976562 C 1.882812 0.0078125 2.175781 0.0625 2.519531 0.0625 C 2.863281 0.0625 3.199219 -0.0429688 3.535156 -0.257812 C 3.871094 -0.46875 4.121094 -0.769531 4.289062 -1.140625 L 3.582031 -1.140625 C 3.441406 -0.953125 3.273438 -0.8125 3.070312 -0.707031 C 2.863281 -0.601562 2.652344 -0.558594 2.433594 -0.558594 C 2.09375 -0.558594 1.796875 -0.664062 1.53125 -0.882812 C 1.265625 -1.097656 1.097656 -1.371094 1.042969 -1.707031 L 4.464844 -1.707031 Z M 3.8125 -2.238281 L 1.050781 -2.238281 C 1.085938 -2.394531 1.148438 -2.546875 1.238281 -2.6875 C 1.519531 -3.148438 1.917969 -3.378906 2.433594 -3.378906 C 2.757812 -3.378906 3.050781 -3.273438 3.308594 -3.058594 C 3.574219 -2.839844 3.730469 -2.5625 3.8125 -2.238281 Z M 3.8125 -2.238281 "/></g></g></g><g fill="#364e35" fill-opacity="1"><g transform="translate(172.95316, 250.401199)"><g><path d="M 1.21875 -0.546875 C 1.070312 -0.65625 0.953125 -0.832031 0.894531 -1.085938 L 0.238281 -1.085938 C 0.371094 -0.28125 0.882812 0.113281 1.785156 0.113281 C 2 0.113281 2.191406 0.0976562 2.378906 0.0429688 C 2.5625 -0.0078125 2.722656 -0.078125 2.875 -0.175781 C 3.175781 -0.378906 3.324219 -0.691406 3.324219 -1.105469 C 3.324219 -1.53125 3.128906 -1.832031 2.722656 -2.023438 C 2.554688 -2.105469 2.371094 -2.167969 2.167969 -2.210938 C 1.972656 -2.253906 1.785156 -2.308594 1.617188 -2.359375 C 1.441406 -2.414062 1.300781 -2.484375 1.183594 -2.5625 C 1.070312 -2.644531 1.007812 -2.769531 1.007812 -2.945312 C 1.007812 -3.121094 1.078125 -3.253906 1.21875 -3.332031 C 1.363281 -3.421875 1.53125 -3.464844 1.714844 -3.464844 C 1.910156 -3.464844 2.078125 -3.421875 2.210938 -3.351562 C 2.34375 -3.28125 2.449219 -3.140625 2.511719 -2.925781 L 3.175781 -2.925781 C 3.09375 -3.316406 2.925781 -3.589844 2.679688 -3.742188 C 2.421875 -3.898438 2.113281 -3.980469 1.734375 -3.980469 C 1.363281 -3.980469 1.035156 -3.871094 0.761719 -3.679688 C 0.496094 -3.476562 0.355469 -3.183594 0.355469 -2.792969 C 0.355469 -2.609375 0.40625 -2.441406 0.503906 -2.300781 C 0.609375 -2.148438 0.761719 -2.035156 0.953125 -1.945312 C 1.132812 -1.867188 1.316406 -1.804688 1.511719 -1.75 C 1.707031 -1.707031 1.890625 -1.652344 2.070312 -1.601562 C 2.46875 -1.46875 2.671875 -1.273438 2.671875 -1.027344 C 2.671875 -0.601562 2.386719 -0.398438 1.820312 -0.398438 C 1.582031 -0.398438 1.378906 -0.441406 1.21875 -0.546875 Z M 1.21875 -0.546875 "/></g></g></g><g fill="#364e35" fill-opacity="1"><g transform="translate(178.276402, 250.401199)"><g><path d="M 0.175781 -3.316406 L 1.148438 -3.316406 L 1.148438 0 L 1.769531 0 L 1.769531 -3.316406 L 2.730469 -3.316406 L 2.730469 -3.890625 L 1.769531 -3.890625 L 1.769531 -5.402344 L 1.148438 -5.402344 L 1.148438 -3.890625 L 0.175781 -3.890625 Z M 0.175781 -3.316406 "/></g></g></g><g fill="#364e35" fill-opacity="1"><g transform="translate(182.954132, 250.401199)"><g><path d="M 1.175781 0.0898438 C 1.308594 0.0898438 1.433594 0.0429688 1.539062 -0.0546875 C 1.644531 -0.148438 1.699219 -0.265625 1.699219 -0.40625 C 1.699219 -0.546875 1.644531 -0.664062 1.539062 -0.761719 C 1.433594 -0.859375 1.316406 -0.910156 1.175781 -0.910156 C 1.035156 -0.910156 0.910156 -0.859375 0.8125 -0.761719 C 0.707031 -0.65625 0.664062 -0.539062 0.664062 -0.40625 C 0.664062 -0.265625 0.707031 -0.148438 0.8125 -0.0546875 C 0.917969 0.0429688 1.035156 0.0898438 1.175781 0.0898438 Z M 1.175781 0.0898438 "/></g></g></g><g fill="#364e35" fill-opacity="1"><g transform="translate(187.083622, 250.401199)"><g><path d="M 1.308594 0 L 1.925781 0 L 1.925781 -6.082031 L 0.441406 -5.925781 L 0.441406 -5.386719 L 1.308594 -5.386719 Z M 1.308594 0 "/></g></g></g><g fill="#364e35" fill-opacity="1"><g transform="translate(191.389969, 250.401199)"><g><path d="M 2.246094 -2.730469 C 1.867188 -2.730469 1.539062 -2.863281 1.265625 -3.148438 C 1 -3.421875 0.867188 -3.75 0.867188 -4.128906 C 0.867188 -4.5 1 -4.820312 1.273438 -5.09375 C 1.539062 -5.359375 1.867188 -5.492188 2.253906 -5.492188 C 2.625 -5.492188 2.960938 -5.351562 3.246094 -5.074219 C 3.519531 -4.800781 3.660156 -4.484375 3.660156 -4.101562 C 3.660156 -3.730469 3.519531 -3.40625 3.238281 -3.140625 C 3.113281 -3.015625 2.960938 -2.910156 2.792969 -2.839844 C 2.617188 -2.769531 2.441406 -2.730469 2.246094 -2.730469 Z M 0.238281 -4.085938 C 0.238281 -3.5 0.441406 -3.023438 0.859375 -2.652344 C 1.238281 -2.300781 1.722656 -2.113281 2.335938 -2.09375 L 2.511719 -2.210938 L 0.671875 0 L 1.484375 0 L 3.835938 -2.839844 C 4.136719 -3.191406 4.289062 -3.617188 4.289062 -4.101562 C 4.289062 -4.660156 4.085938 -5.128906 3.695312 -5.519531 C 3.289062 -5.90625 2.8125 -6.109375 2.265625 -6.109375 C 1.699219 -6.109375 1.21875 -5.914062 0.832031 -5.527344 C 0.644531 -5.339844 0.503906 -5.128906 0.398438 -4.890625 C 0.292969 -4.640625 0.238281 -4.378906 0.238281 -4.085938 Z M 0.238281 -4.085938 "/></g></g></g><g fill="#364e35" fill-opacity="1"><g transform="translate(197.685898, 250.401199)"><g><path d="M 2.324219 -3.058594 C 2.679688 -3.058594 2.980469 -2.9375 3.226562 -2.695312 C 3.476562 -2.457031 3.597656 -2.15625 3.597656 -1.8125 C 3.597656 -1.460938 3.476562 -1.160156 3.238281 -0.910156 C 2.988281 -0.65625 2.6875 -0.53125 2.324219 -0.53125 C 1.953125 -0.53125 1.652344 -0.65625 1.414062 -0.910156 C 1.167969 -1.160156 1.050781 -1.460938 1.050781 -1.8125 C 1.050781 -2.15625 1.167969 -2.457031 1.414062 -2.695312 C 1.664062 -2.9375 1.964844 -3.058594 2.324219 -3.058594 Z M 2.324219 -5.5 C 2.609375 -5.5 2.855469 -5.402344 3.058594 -5.21875 C 3.261719 -5.023438 3.367188 -4.785156 3.367188 -4.5 C 3.367188 -4.21875 3.261719 -3.980469 3.058594 -3.777344 C 2.855469 -3.574219 2.609375 -3.476562 2.324219 -3.476562 C 2.035156 -3.476562 1.785156 -3.574219 1.589844 -3.777344 C 1.378906 -3.980469 1.28125 -4.21875 1.28125 -4.5 C 1.28125 -4.785156 1.378906 -5.023438 1.589844 -5.21875 C 1.785156 -5.402344 2.035156 -5.5 2.324219 -5.5 Z M 2.324219 0.0898438 C 2.875 0.0898438 3.332031 -0.0703125 3.714844 -0.398438 C 3.890625 -0.558594 4.03125 -0.742188 4.136719 -0.964844 C 4.246094 -1.183594 4.296875 -1.441406 4.296875 -1.722656 C 4.296875 -2.007812 4.210938 -2.289062 4.03125 -2.574219 C 3.855469 -2.855469 3.609375 -3.085938 3.289062 -3.261719 C 3.765625 -3.652344 4.003906 -4.085938 4.003906 -4.546875 C 4.003906 -5.003906 3.835938 -5.386719 3.511719 -5.6875 C 3.199219 -5.96875 2.804688 -6.109375 2.324219 -6.109375 C 1.839844 -6.109375 1.441406 -5.96875 1.132812 -5.6875 C 0.804688 -5.386719 0.644531 -5.003906 0.644531 -4.554688 C 0.644531 -4.085938 0.882812 -3.652344 1.363281 -3.261719 C 1.035156 -3.085938 0.785156 -2.855469 0.609375 -2.574219 C 0.433594 -2.289062 0.355469 -2.007812 0.355469 -1.714844 C 0.355469 -1.167969 0.539062 -0.734375 0.929688 -0.398438 C 1.308594 -0.0703125 1.769531 0.0898438 2.324219 0.0898438 Z M 2.324219 0.0898438 "/></g></g></g><g fill="#364e35" fill-opacity="1"><g transform="translate(204.105623, 250.401199)"><g><path d="M 2.246094 -2.730469 C 1.867188 -2.730469 1.539062 -2.863281 1.265625 -3.148438 C 1 -3.421875 0.867188 -3.75 0.867188 -4.128906 C 0.867188 -4.5 1 -4.820312 1.273438 -5.09375 C 1.539062 -5.359375 1.867188 -5.492188 2.253906 -5.492188 C 2.625 -5.492188 2.960938 -5.351562 3.246094 -5.074219 C 3.519531 -4.800781 3.660156 -4.484375 3.660156 -4.101562 C 3.660156 -3.730469 3.519531 -3.40625 3.238281 -3.140625 C 3.113281 -3.015625 2.960938 -2.910156 2.792969 -2.839844 C 2.617188 -2.769531 2.441406 -2.730469 2.246094 -2.730469 Z M 0.238281 -4.085938 C 0.238281 -3.5 0.441406 -3.023438 0.859375 -2.652344 C 1.238281 -2.300781 1.722656 -2.113281 2.335938 -2.09375 L 2.511719 -2.210938 L 0.671875 0 L 1.484375 0 L 3.835938 -2.839844 C 4.136719 -3.191406 4.289062 -3.617188 4.289062 -4.101562 C 4.289062 -4.660156 4.085938 -5.128906 3.695312 -5.519531 C 3.289062 -5.90625 2.8125 -6.109375 2.265625 -6.109375 C 1.699219 -6.109375 1.21875 -5.914062 0.832031 -5.527344 C 0.644531 -5.339844 0.503906 -5.128906 0.398438 -4.890625 C 0.292969 -4.640625 0.238281 -4.378906 0.238281 -4.085938 Z M 0.238281 -4.085938 "/></g></g></g></svg>